<svg xmlns="http://www.w3.org/2000/svg" viewBox="145 145 790 790"><defs><linearGradient id="a" x1="974.54" x2="377.33" y1="862.78" y2="419.69" gradientUnits="userSpaceOnUse"><stop offset="0" stop-color="#115696"/><stop offset=".38" stop-color="#2878b2"/><stop offset="1" stop-color="#53b7e7"/></linearGradient></defs><path d="M871.09 390.79c-35.94-36.96-85.24-60.81-135.05-66.03-10.59-97.12-94.14-175.61-191.88-175.61-60.73 0-111.85 22.68-147.81 65.6-28.06 33.48-45.05 77.96-48.82 126.92h-1.76v.12c-105.26 3.71-192.93 93.72-192.93 199.85 0 61.28 25.2 116.46 70.96 155.38 33.57 28.56 77.02 47.02 119.13 51.15 7.04 101.91 91.57 182.67 194.53 182.67h8.82c127.28 0 195.07-123.94 195.07-213.41 0-22.29-2-66.27-15.38-110.28-8.75-28.77-24.34-56.17-45.09-79.26L580.64 416.34c33.53-23.6 76.43-37.61 118.1-37.61h16.79c41.33 0 85.8 19.33 116.06 50.44 19.2 19.74 41.79 53.62 40.41 102.87v.77c-.01 74.53-47.35 134.94-114.81 143.85l-.58.06 3.88 55.29 7.38-1.22v-.05c44.78-6.8 83.84-30.1 113.21-66.01 29.57-36.16 45.9-82.86 45.98-131.52 1.42-54.05-17.94-103.29-55.99-142.43Zm-469.51-28.23c0-44.27 13.07-84.25 36.81-112.58C463.6 219.9 500.17 204 544.16 204c66.62 0 125.84 54.19 136.48 120.39-61.26 4.43-120.99 30.93-162.72 72.94l-90.75 84.95c-16.23-30.95-25.59-67.18-25.59-102.6v-17.13ZM207.7 541.65c0-38.19 15.6-74.58 43.94-102.46 26.25-25.83 60.86-41.13 95.71-42.52 3.99 62.63 29.74 123.87 70.7 166.62l81.86 91.86c-33.36 24.46-78.18 39.06-122.62 39.06h-16.65c-104.33 0-152.93-91.03-152.93-152.56Zm465.81 81.47c8.27 27.19 13.01 61.56 13.01 94.32 0 35.51-14.36 76.09-37.49 105.9C630.39 847.36 597.44 876 546.3 876h-8.82c-72.71 0-132.67-56.18-139.54-127.81 61.63-4.78 120.44-30.58 160.46-71.21l86.73-81.87-37.65-39.89-66.89 63.14-81.03-90.93 81.03-74.83 99.52 111.96c15.42 17.17 26.98 37.41 33.41 58.56Z" style="fill:url(#a)"/></svg>
